<?xml version='1.0' encoding='utf-8'?>
<svg xmlns="http://www.w3.org/2000/svg" version="1.1" id="Layer_1" x="0px" y="0px" viewBox="0 0 5000 460.3548" enable-background="new 0 0 5000 460.3548"> <g> <path d="M2500,403.2506c-0.4338-0.0011-0.8687-0.0016-1.3044-0.0016c-36.9836,0-67.2437,3.9002-67.2437,8.6634 c0,4.7633,14.0493,17.6599,31.2202,28.6569c15.22,9.7454,30.8591,17.9744,37.3279,19.7855 c6.4688-1.8111,22.1079-10.0401,37.3279-19.7855c17.1709-10.997,31.2202-23.8936,31.2202-28.6569 c0-4.7632-30.26-8.6634-67.2437-8.6634C2500.8687,403.249,2500.4338,403.2495,2500,403.2506z"/> <path d="M2325.6282,399.0733c-10.3945,13.7362-31.6816,18.2637-46.551,9.2968c-38.6748-23.3229-2.2813-83.6649,36.3911-60.3421 c15.7974,9.5274,21.5022,32.5694,11.9749,48.3668C2326.8833,397.3228,2326.2771,398.216,2325.6282,399.0733z"/> <path d="M2674.3718,399.0733c10.3945,13.7362,31.6816,18.2637,46.551,9.2968c38.6748-23.3229,2.2813-83.6649-36.3911-60.3421 c-15.7974,9.5274-21.5022,32.5694-11.9749,48.3668C2673.1167,397.3228,2673.7229,398.216,2674.3718,399.0733z"/> <path d="M428.5208,244.0578c370.4731-3.5457,740.9462-7.0913,1111.4192-10.637c65.0356-0.6224,135.1459,0.3034,187.6044,38.7497 c-1.0074-52.2355-2.0148-104.471-3.0222-156.7066c-103.1566,62.5569-229.234,70.8013-349.7754,75.7439 c-271.98,11.1522-544.3049,13.8884-816.454,8.2034c-97.1848-2.0301-196.8085-5.6342-286.7345-42.5436 c-41.4409-17.0091-80.5426-40.994-124.427-49.9837c-35.1482-7.2001-77.3253-2.6256-104.9704,22.2036 C16.782,151.8815-10.5384,191.5082,4.105,226.567c11.1425,26.677,43.1823,42.6774,71.2025,35.558 c-28.6402-29.0028-29.3891-80.8796-1.598-110.6971s79.5923-32.7154,110.5358-6.1838 c-22.9624-9.8926-53.0831,6.8933-56.7494,31.6257c-3.6663,24.7325,20.2894,49.5346,45.1342,46.7289 c16.0056-1.8075,29.3444-12.6719,44.302-18.6481c47.7267-19.0689,107.8048,26.3299,102.4923,77.4498 c-2.1718,20.8984-13.0416,40.4389-13.2277,61.4491c-0.1861,21.0102,18.9633,44.7482,38.4425,36.8728 c16.9231-6.8419,18.3969-30.5748,12.8871-47.9773c-5.5097-17.4025-15.2284-35.1391-10.7134-52.8258 c7.4874-29.3306,45.7843-35.5177,76.0541-35.8074C424.7515,244.0939,426.6361,244.0759,428.5208,244.0578z"/> <path d="M4571.479,244.0578c-370.4727-3.5457-740.9458-7.0913-1111.4189-10.637c-65.0356-0.6224-135.146,0.3034-187.6045,38.7497 c1.0076-52.2355,2.0149-104.471,3.0225-156.7066c103.1565,62.5569,229.2339,70.8013,349.7754,75.7439 c271.9797,11.1522,544.3047,13.8884,816.4541,8.2034c97.1846-2.0301,196.8081-5.6342,286.7344-42.5436 c41.4409-17.0091,80.5425-40.994,124.4268-49.9837c35.1484-7.2001,77.3257-2.6256,104.9707,22.2036 c25.3784,22.7938,52.6992,62.4205,38.0557,97.4793c-11.1426,26.677-43.1821,42.6774-71.2026,35.558 c28.6401-29.0028,29.3892-80.8796,1.5981-110.6971s-79.5923-32.7154-110.5356-6.1838c22.9624-9.8926,53.083,6.8933,56.749,31.6257 c3.6665,24.7325-20.2891,49.5346-45.1338,46.7289c-16.0059-1.8075-29.3447-12.6719-44.3022-18.6481 c-47.7266-19.0689-107.8047,26.3299-102.4922,77.4498c2.1719,20.8984,13.0415,40.4389,13.2275,61.4491 s-18.9634,44.7482-38.4424,36.8728c-16.9233-6.8419-18.397-30.5748-12.8872-47.9773 c5.5098-17.4025,15.2285-35.1391,10.7134-52.8258c-7.4873-29.3306-45.7842-35.5177-76.0537-35.8074 C4575.2485,244.0939,4573.3638,244.0759,4571.479,244.0578z"/> <path d="M2500,349.5439c-12.9819,0.116-25.9609,0.5941-38.9163,1.4341c-12.7388,0.8259-42.718-2.0325-50.802,10.2896 c-11.1936,17.0619,16.0137,19.8916,26.8643,19.6444c20.9512-0.4774,41.9026-0.9547,62.854-1.4321 c20.9514,0.4774,41.9028,0.9547,62.854,1.4321c10.8506,0.2472,38.0579-2.5825,26.8643-19.6444 c-8.084-12.3221-38.0632-9.4636-50.802-10.2896C2525.9609,350.138,2512.9819,349.6599,2500,349.5439z"/> <path d="M2158.2847,349.8137c16.8608-6.7132,33.0476-15.0687,48.2148-25.0814c46.418-30.6427,82.9087-77.1739,98.6016-130.7996 c2.5891-8.8485,3.9373-20.0438-3.272-25.7908c-5.9294-4.727-15.1055-2.9088-20.8882,1.9966 c-5.783,4.9054-8.9993,12.1061-12.0967,19.0279c-15.6035,34.8694-33.2781,69.6572-60.1968,96.7631 s-64.6785,45.7837-102.6526,41.6239c-37.9744-4.1598-73.6101-35.6705-74.6383-73.858c-0.3099-11.5078,2.2491-23.5689-2.165-34.201 c-5.4797-13.1985-20.6018-20.2612-34.8884-20.6066c-24.33-0.5882-48.0403,16.411-55.2927,39.6424s2.5756,50.7007,22.9189,64.0588 c4.7091,3.0921,9.938,5.5248,13.9246,9.5052c3.9866,3.9804,6.5098,10.177,4.1975,15.3141c-2.132,4.7365-7.795,7.0818-12.9818,6.804 c-5.1868-0.2778-10.0052-2.6604-14.5618-5.1541c-27.8975-15.268-52.7646-37.0048-68.5536-64.6108 c-15.7891-27.606-21.8833-61.3385-13.33-91.9689s32.7053-57.2465,63.3948-65.5855c30.6896-8.339,66.7007,3.7318,83.6368,30.6493 c6.37,10.1241,12.3492,23.5296,24.2848,24.317c13.5369,0.893,21.2349-15.8102,20.9954-29.3744 c-0.5251-29.7528-20.8785-57.3304-47.871-69.8568s-59.3137-10.9661-86.6685,0.7484 c-67.5474,28.9267-107.365,110.2546-84.8579,180.7259c13.0494,40.8588,43.7383,74.9191,81.0077,96.1493 c37.2694,21.2302,80.6963,30.2483,123.5884,30.2749C2085.7009,370.5498,2123.4333,363.6899,2158.2847,349.8137z"/> <path d="M2841.7153,349.8137c-16.8608-6.7132-33.0476-15.0687-48.2148-25.0814c-46.418-30.6427-82.9087-77.1739-98.6016-130.7996 c-2.5891-8.8485-3.9373-20.0438,3.272-25.7908c5.9294-4.727,15.1055-2.9088,20.8882,1.9966 c5.783,4.9054,8.9993,12.1061,12.0967,19.0279c15.6035,34.8694,33.2781,69.6572,60.1968,96.7631s64.6785,45.7837,102.6526,41.6239 c37.9744-4.1598,73.6101-35.6705,74.6384-73.858c0.3098-11.5078-2.2493-23.5689,2.165-34.201 c5.4797-13.1985,20.6016-20.2612,34.8882-20.6066c24.3301-0.5882,48.0405,16.411,55.293,39.6424s-2.5757,50.7007-22.9192,64.0588 c-4.709,3.0921-9.938,5.5248-13.9246,9.5052c-3.9863,3.9804-6.5098,10.177-4.1973,15.3141 c2.1318,4.7365,7.7949,7.0818,12.9817,6.804c5.1868-0.2778,10.0054-2.6604,14.5618-5.1541 c27.8975-15.268,52.7646-37.0048,68.5537-64.6108c15.7888-27.606,21.8831-61.3385,13.3298-91.9689 c-8.5535-30.6304-32.7053-57.2465-63.3948-65.5855s-66.7007,3.7318-83.637,30.6493c-6.3699,10.1241-12.3491,23.5296-24.2847,24.317 c-13.5369,0.893-21.2349-15.8102-20.9954-29.3744c0.5251-29.7528,20.8784-57.3304,47.8711-69.8568 c26.9924-12.5264,59.3135-10.9661,86.6685,0.7484c67.5474,28.9267,107.365,110.2546,84.8577,180.7259 c-13.0493,40.8588-43.7383,74.9191-81.0076,96.1493c-37.2693,21.2302-80.6963,30.2483-123.5884,30.2749 C2914.2991,370.5498,2876.5667,363.6899,2841.7153,349.8137z"/> <path d="M201.782,327.0527c-7.8085,1.4424-16.1446,0.0623-22.6431-4.5436c-31.2175-22.1255,3.2983-70.8179,34.513-48.6933 c12.7477,9.0357,16.1252,28.8555,7.0895,41.6032C216.312,321.6682,209.291,325.6656,201.782,327.0527z"/> <path d="M4798.2988,326.8898c-2.8579-0.4425-5.644-1.3198-8.2412-2.6688c-33.4531-17.376-6.4077-69.6817,27.1426-52.2542 c13.6802,7.1061,19.6616,26.0186,12.5552,39.6986C4823.9985,322.7479,4810.4932,328.7777,4798.2988,326.8898z"/> <path d="M2500,0.0051c-28.0347-0.2799-56.8638,10.892-74.2104,32.9058c-17.459,22.1564-20.947,55.629-5.0146,78.9073 c11.5308,16.8475,30.9292,26.5604,44.5088,41.8049c13.5793,15.2445,18.864,42.5235,1.9421,53.9451 c-10.1653,6.8613-24.4509,4.5581-34.522-2.4412c-10.0708-6.9993-16.7747-17.7849-22.7524-28.4939 c-15.3298-27.4629-27.8618-56.6013-45.9309-82.3446s-42.9292-48.4601-73.5164-55.7836 c-35.8843-8.5918-74.1731,5.5834-102.9797,28.6417c-23.5215,18.8277-41.4739,42.9594-58.6819,67.4174 c-15.6907,22.3012-27.033,38.4907-17.0908,68.0084c5.5991,16.624,20.2405,31.0487,37.7446,32.195 c17.5042,1.1463,35.4417-14.6008,33.0496-31.9786c-2.1201-15.4001-17.4592-25.7936-21.9729-40.6692 c-4.6011-15.164,3.5527-32.0741,16.2617-41.5398c12.709-9.4657,29.0073-12.7193,44.8257-13.6639 c67.9233-4.0561,136.6858,33.0313,170.6067,92.0177c13.7458,23.903,22.0122,50.6863,36.2783,74.2823 c14.2664,23.596,36.9722,44.7667,64.4912,46.4972c2.342,0.1473,4.6643,0.1506,6.9634,0.0195 c2.2991,0.1311,4.6213,0.1278,6.9634-0.0195c27.519-1.7305,50.2249-22.9012,64.4912-46.4972 c14.2661-23.596,22.5325-50.3793,36.2783-74.2823c33.9209-58.9865,102.6833-96.0739,170.6067-92.0177 c15.8184,0.9446,32.1167,4.1982,44.8257,13.6639c12.709,9.4657,20.8628,26.3758,16.2617,41.5398 c-4.5137,14.8756-19.8528,25.2691-21.9729,40.6692c-2.3921,17.3778,15.5454,33.1248,33.0496,31.9786 c17.5042-1.1463,32.1455-15.571,37.7446-32.195c9.9421-29.5177-1.4001-45.7072-17.0908-68.0084 c-17.208-24.458-35.1604-48.5898-58.6819-67.4174c-28.8066-23.0582-67.0955-37.2335-102.9797-28.6417 c-30.5872,7.3235-55.4473,30.0403-73.5164,55.7836s-30.6011,54.8817-45.9309,82.3446 c-5.9778,10.7089-12.6816,21.4946-22.7524,28.4939c-10.071,6.9993-24.3567,9.3025-34.522,2.4412 c-16.9219-11.4216-11.6372-38.7006,1.9421-53.9451c13.5796-15.2445,32.978-24.9575,44.5088-41.8049 c15.9324-23.2783,12.4443-56.7509-5.0146-78.9073C2556.8638,10.8971,2528.0347-0.2748,2500,0.0051z"/> <path d="M1763.1519,301.4031l0.0024-0.0023c5.6509,2.3476,11.0486,4.6038,11.9901,5.0259 c0.944,0.4175,8.5076-6.0344,16.811-14.3366c21.9904-21.994,21.3854-163.7588-0.8069-188.281 c-27.1149-29.9609-66.7887-14.1279-41.3635,16.5084c7.9117,9.5312,10.2688,40.0925,7.3641,95.4198 C1754.3888,268.3488,1756.5101,298.6451,1763.1519,301.4031z"/> <path d="M3236.8481,301.4031l-0.0024-0.0023c-5.6509,2.3476-11.0486,4.6038-11.9902,5.0259 c-0.9438,0.4175-8.5073-6.0344-16.8108-14.3366c-21.9905-21.994-21.3855-163.7588,0.8066-188.281 c27.115-29.9609,66.7888-14.1279,41.3638,16.5084c-7.9119,9.5312-10.2688,40.0925-7.3643,95.4198 C3245.6113,268.3488,3243.49,298.6451,3236.8481,301.4031z"/> </g> </svg>